# xmcd CD database file
#
# Track frame offsets:
#	150
#	22730
#	43220
#	68077
#	91047
#	113120
#	132737
#	157055
#	179705
#	201270
#	224230
#	245372
#	269077
#	291832
#	313525
#
# Disc length: 4454 seconds
#
# Revision: 0
# Processed by: cddbd v1.5PL3 Copyright (c) Steve Scherf et al.
# Submitted via: CDex 1.51
#
DISCID=ee11640f
DTITLE=Varios Artista Latinos - Salsa Picante Vol.3
DYEAR=1995
DGENRE=Salsa
TTITLE0=Se me rompe el alma/Victor Manuel
TTITLE1=MegaRuiz/Rey Ruiz
TTITLE2=Medias Negras/Willy Chirino
TTITLE3=La soledad/DLG
TTITLE4=Vuelve/Adriant Marchant
TTITLE5=Lloro por ti/Grupo Mania
TTITLE6=No te prometi ser fiel/Dimension Latina
TTITLE7=La mejor del mundo/Yambaó
TTITLE8=Que no me da la gana/Gilberto Santarosa 
TTITLE9=Megamix/Luis Enrique
TTITLE10=Talento de television/Willie Colon
TTITLE11=Mujer de novela/Grupo Niche
TTITLE12=Donde este el amor/Salserin
TTITLE13=Me nego/Adolecent's Orquesta
TTITLE14=Pa'l Rumbero/Los Gemelos
EXTD=YEAR: 1995
EXTT0=
EXTT1=
EXTT2=
EXTT3=
EXTT4=
EXTT5=
EXTT6=
EXTT7=
EXTT8=
EXTT9=
EXTT10=
EXTT11=
EXTT12=
EXTT13=
EXTT14=
PLAYORDER=
